# xmcd
#
# Track frame offsets: 
#        150
#        13774
#        22928
#        34872
#        45395
#        55750
#        68381
#        80363
#        95971
#        107604
#        119481
#        130294
#        141257
#        156287
#        167185
#        180678
#        193056
#        205810
#        217448
#        232375
#        241114
#        255142
#        269453
#        280034
#        304292
#        318820
#
# Disc length: 4455 seconds
#
# Revision: 5
# Processed by: cddbd v1.5.2PL0 Copyright (c) Steve Scherf et al.
# Submitted via: ExactAudioCopy v0.99pb5
#
DISCID=7711651a
DTITLE=The Shadows - Life Story [Disc 1)
DYEAR=2004
DGENRE=Oldies
TTITLE0=Apache
TTITLE1=Man Of Mystery
TTITLE2=Shadoogie '83
TTITLE3=Shindig
TTITLE4=Wonderful Land
TTITLE5=The Rise And Fall Of Flingel Bunt
TTITLE6=The Boys
TTITLE7=Theme From 'The Deerhunter' (Cavatina)
TTITLE8=The Frightened City
TTITLE9=Theme For Young Lovers
TTITLE10=Dance On
TTITLE11=The Savage
TTITLE12=Albatross
TTITLE13=F.B.I.
TTITLE14=Guitar Tango
TTITLE15=Genie With The Light Brown Lamp
TTITLE16=Atlantis
TTITLE17=Foot Tapper
TTITLE18=Don't Cry For Me Argentina
TTITLE19=Kon-Tiki
TTITLE20=Telstar
TTITLE21=The Third Man
TTITLE22=Geronimo
TTITLE23=Equinoxe (Part V)
TTITLE24=The Stranger
TTITLE25=Riders In The Sky
EXTD=YEAR: 2004
EXTT0=
EXTT1=
EXTT2=
EXTT3=
EXTT4=
EXTT5=
EXTT6=
EXTT7=
EXTT8=
EXTT9=
EXTT10=
EXTT11=
EXTT12=
EXTT13=
EXTT14=
EXTT15=
EXTT16=
EXTT17=
EXTT18=
EXTT19=
EXTT20=
EXTT21=
EXTT22=
EXTT23=
EXTT24=
EXTT25=
PLAYORDER=
